<mxfile host="Electron" agent="Mozilla/5.0 (X11; Linux x86_64) AppleWebKit/537.36 (KHTML, like Gecko) draw.io/24.7.17 Chrome/128.0.6613.36 Electron/32.0.1 Safari/537.36" version="24.7.17">
  <diagram name="Page-1" id="TyqKgyHrLeYZpUxABVwl">
    <mxGraphModel dx="1311" dy="1208" grid="1" gridSize="10" guides="1" tooltips="1" connect="1" arrows="1" fold="1" page="1" pageScale="1" pageWidth="850" pageHeight="1100" math="0" shadow="0">
      <root>
        <mxCell id="0" />
        <mxCell id="1" parent="0" />
        <mxCell id="AvFX2kMZ2if7fcf0_LhW-10" style="edgeStyle=orthogonalEdgeStyle;orthogonalLoop=1;jettySize=auto;html=1;entryX=0;entryY=0.5;entryDx=0;entryDy=0;fontColor=default;labelBackgroundColor=none;" parent="1" source="AvFX2kMZ2if7fcf0_LhW-1" target="AvFX2kMZ2if7fcf0_LhW-5" edge="1">
          <mxGeometry relative="1" as="geometry" />
        </mxCell>
        <mxCell id="AvFX2kMZ2if7fcf0_LhW-11" style="edgeStyle=orthogonalEdgeStyle;orthogonalLoop=1;jettySize=auto;html=1;entryX=0;entryY=0.5;entryDx=0;entryDy=0;fontColor=default;labelBackgroundColor=none;" parent="1" source="AvFX2kMZ2if7fcf0_LhW-1" target="AvFX2kMZ2if7fcf0_LhW-6" edge="1">
          <mxGeometry relative="1" as="geometry" />
        </mxCell>
        <mxCell id="AvFX2kMZ2if7fcf0_LhW-12" style="edgeStyle=orthogonalEdgeStyle;orthogonalLoop=1;jettySize=auto;html=1;entryX=0;entryY=0.5;entryDx=0;entryDy=0;fontColor=default;labelBackgroundColor=none;" parent="1" source="AvFX2kMZ2if7fcf0_LhW-1" target="AvFX2kMZ2if7fcf0_LhW-7" edge="1">
          <mxGeometry relative="1" as="geometry" />
        </mxCell>
        <mxCell id="AvFX2kMZ2if7fcf0_LhW-1" value="&lt;div&gt;Użytkownik&lt;/div&gt;" style="shape=umlActor;verticalLabelPosition=bottom;verticalAlign=top;html=1;outlineConnect=0;labelBackgroundColor=none;" parent="1" vertex="1">
          <mxGeometry x="110" y="310" width="30" height="60" as="geometry" />
        </mxCell>
        <mxCell id="AvFX2kMZ2if7fcf0_LhW-2" value="&lt;div&gt;FU1.&lt;/div&gt;&lt;div&gt;Wprowadzenie opisu sieci do systemu&lt;br&gt;&lt;/div&gt;" style="ellipse;whiteSpace=wrap;html=1;labelBackgroundColor=none;" parent="1" vertex="1">
          <mxGeometry x="500" y="300" width="120" height="80" as="geometry" />
        </mxCell>
        <mxCell id="AvFX2kMZ2if7fcf0_LhW-5" value="&lt;div&gt;FU2.&lt;/div&gt;&lt;div&gt;Przeglądanie prezentacji sieci&lt;br&gt;&lt;/div&gt;" style="ellipse;whiteSpace=wrap;html=1;labelBackgroundColor=none;" parent="1" vertex="1">
          <mxGeometry x="270" y="200" width="120" height="80" as="geometry" />
        </mxCell>
        <mxCell id="AvFX2kMZ2if7fcf0_LhW-6" value="&lt;div&gt;FU3.&lt;/div&gt;&lt;div&gt;Wygenerowanie zestawienia zajętości pasma przez kanały&lt;br&gt;&lt;/div&gt;" style="ellipse;whiteSpace=wrap;html=1;labelBackgroundColor=none;" parent="1" vertex="1">
          <mxGeometry x="265" y="290" width="130" height="100" as="geometry" />
        </mxCell>
        <mxCell id="AvFX2kMZ2if7fcf0_LhW-7" value="&lt;div&gt;FU4.&lt;/div&gt;&lt;div&gt;Wyznaczenie nowego kanału&lt;br&gt;&lt;/div&gt;" style="ellipse;whiteSpace=wrap;html=1;labelBackgroundColor=none;" parent="1" vertex="1">
          <mxGeometry x="270" y="400" width="120" height="80" as="geometry" />
        </mxCell>
        <mxCell id="AvFX2kMZ2if7fcf0_LhW-14" value="&amp;lt;&amp;lt;include&amp;gt;&amp;gt;" style="endArrow=open;endSize=12;dashed=1;html=1;fontColor=default;exitX=1;exitY=0.5;exitDx=0;exitDy=0;entryX=0;entryY=0;entryDx=0;entryDy=0;labelBackgroundColor=none;" parent="1" source="AvFX2kMZ2if7fcf0_LhW-5" target="AvFX2kMZ2if7fcf0_LhW-2" edge="1">
          <mxGeometry width="160" relative="1" as="geometry">
            <mxPoint x="400" y="239.66" as="sourcePoint" />
            <mxPoint x="560" y="239.66" as="targetPoint" />
          </mxGeometry>
        </mxCell>
        <mxCell id="AvFX2kMZ2if7fcf0_LhW-15" value="&amp;lt;&amp;lt;include&amp;gt;&amp;gt;" style="endArrow=open;endSize=12;dashed=1;html=1;fontColor=default;exitX=1;exitY=0.5;exitDx=0;exitDy=0;entryX=0;entryY=0.5;entryDx=0;entryDy=0;labelBackgroundColor=none;" parent="1" source="AvFX2kMZ2if7fcf0_LhW-6" target="AvFX2kMZ2if7fcf0_LhW-2" edge="1">
          <mxGeometry width="160" relative="1" as="geometry">
            <mxPoint x="400" y="360" as="sourcePoint" />
            <mxPoint x="508" y="432" as="targetPoint" />
          </mxGeometry>
        </mxCell>
        <mxCell id="AvFX2kMZ2if7fcf0_LhW-16" value="&amp;lt;&amp;lt;include&amp;gt;&amp;gt;" style="endArrow=open;endSize=12;dashed=1;html=1;fontColor=default;exitX=1;exitY=0.5;exitDx=0;exitDy=0;entryX=0;entryY=1;entryDx=0;entryDy=0;labelBackgroundColor=none;" parent="1" source="AvFX2kMZ2if7fcf0_LhW-7" target="AvFX2kMZ2if7fcf0_LhW-2" edge="1">
          <mxGeometry width="160" relative="1" as="geometry">
            <mxPoint x="420" y="450" as="sourcePoint" />
            <mxPoint x="528" y="522" as="targetPoint" />
          </mxGeometry>
        </mxCell>
      </root>
    </mxGraphModel>
  </diagram>
</mxfile>
